<?xml version="1.0" standalone="no"?>
<!DOCTYPE svg PUBLIC "-//W3C//DTD SVG 20010904//EN"
 "http://www.w3.org/TR/2001/REC-SVG-20010904/DTD/svg10.dtd">
<svg version="1.0" xmlns="http://www.w3.org/2000/svg"
 width="700.000000pt" height="700.000000pt" viewBox="0 0 700.000000 700.000000"
 preserveAspectRatio="xMidYMid meet">
<metadata>
Created by potrace 1.14, written by Peter Selinger 2001-2017
</metadata>
<g transform="translate(0.000000,700.000000) scale(0.100000,-0.100000)"
fill="#000000" stroke="none">
<path d="M5888 6995 c-2 -1 -46 -6 -98 -10 -52 -3 -97 -8 -100 -10 -3 -1 -32
-6 -65 -9 -91 -11 -107 -13 -166 -25 -30 -6 -70 -13 -89 -16 -41 -7 -193 -44
-305 -75 -295 -80 -728 -266 -985 -422 -19 -12 -51 -31 -70 -41 -19 -11 -95
-59 -167 -107 l-133 -88 -259 257 c-274 273 -332 319 -493 396 -353 167 -772
126 -1091 -106 -214 -156 -383 -415 -426 -655 -6 -33 -14 -70 -16 -84 -11 -46
-7 -255 5 -320 18 -105 49 -199 97 -300 75 -157 116 -204 599 -690 l145 -146
-76 -157 c-41 -86 -75 -163 -75 -170 0 -7 -4 -17 -9 -23 -13 -13 -96 -238
-138 -368 -57 -183 -106 -402 -137 -616 -26 -176 -27 -579 -2 -720 3 -14 10
-54 16 -90 6 -36 13 -74 15 -85 10 -61 60 -238 91 -322 217 -603 690 -1098
1370 -1434 71 -36 154 -75 184 -88 30 -13 69 -29 85 -36 70 -31 280 -106 405
-144 74 -23 149 -45 165 -50 125 -39 498 -118 690 -146 61 -9 119 -18 130 -20
11 -2 40 -6 65 -9 25 -3 72 -8 105 -11 33 -4 71 -8 84 -10 12 -2 60 -7 105
-10 44 -4 97 -8 116 -11 230 -25 1144 -25 1300 0 14 3 63 7 110 10 47 4 94 8
105 10 20 3 20 12 23 609 1 418 -1 607 -8 607 -6 0 -27 -8 -48 -19 -109 -56
-422 -144 -542 -153 l-35 -3 -1 613 -1 612 111 0 c90 0 120 4 156 21 60 27 98
64 126 124 61 129 -3 281 -140 334 -48 19 -74 20 -516 18 -462 -2 -465 -2
-508 -25 -76 -40 -115 -90 -133 -171 -22 -105 26 -214 119 -268 41 -24 57 -27
166 -31 67 -2 122 -6 124 -7 3 -3 4 -600 2 -1162 l0 -61 -37 4 c-21 2 -49 7
-63 10 -13 3 -39 7 -57 10 -18 2 -75 15 -128 29 -369 99 -669 286 -854 535
-119 161 -180 330 -186 511 -12 409 269 784 750 1001 157 71 391 135 560 155
139 16 512 9 615 -12 14 -3 59 -11 100 -19 91 -18 294 -83 369 -120 30 -14 56
-26 58 -26 2 0 3 839 3 1865 l0 1864 -41 11 c-55 15 -201 43 -284 55 -22 3
-51 8 -65 10 -14 2 -52 7 -85 11 -33 3 -73 8 -90 11 -33 5 -541 13 -547 8z
m-2376 -2925 c30 -9 80 -34 112 -54 189 -126 254 -360 156 -562 -133 -273
-494 -332 -710 -115 -101 101 -144 234 -122 378 41 262 312 431 564 353z"/>
</g>
</svg>
