<?xml version="1.0" encoding="utf-8"?>
<!-- Generator: Adobe Illustrator 28.0.0, SVG Export Plug-In . SVG Version: 6.00 Build 0)  -->
<svg version="1.1" id="Layer_1" xmlns="http://www.w3.org/2000/svg" xmlns:xlink="http://www.w3.org/1999/xlink" x="0px" y="0px"
	 viewBox="0 0 90 90" style="enable-background:new 0 0 90 90;" xml:space="preserve">
<style type="text/css">
	.st0{fill:#FA6607;}
</style>
<g>
	<path class="st0" d="M81.8,76.1V60.3H84c1.8,0,3.2-1.5,3.2-3.2c0-1.7-1.4-3.1-3.2-3.2H73.3c-1.8,0-3.2,1.4-3.2,3.2
		c0,1.8,1.4,3.2,3.2,3.2c0,0,0,0,0.1,0h2.1v15.8c-9.7-1.1-17.1-7.2-17.1-14.5c0-8.1,9.1-14.7,20.3-14.7c4.2,0,8.1,0.9,11.3,2.5v-48
		C86.3,0.5,82.5,0,78.7,0c-11.5,0-22.1,4.1-31,10.4l-5.6-5.6c-5.5-5.5-14.3-5.5-19.8,0c-5.4,5.4-5.5,14.2-0.1,19.7l7,7.1
		c-3.7,7.1-5.9,14.7-5.9,21.9C23.4,78.4,48.1,90,78.7,90c3.9,0,7.7-0.2,11.3-0.6V73.7C87.6,74.9,84.8,75.7,81.8,76.1z M49.2,43.1
		c0,3.2-2.6,5.7-5.7,5.7c0,0,0,0,0,0c-3.2,0-5.7-2.6-5.7-5.7s2.6-5.7,5.7-5.7S49.2,40,49.2,43.1C49.2,43.1,49.2,43.1,49.2,43.1z"/>
</g>
</svg>
